<svg width="48" height="48" viewBox="0 0 48 48" fill="none" xmlns="http://www.w3.org/2000/svg">
<g id="Icon">
<path id="Vector" d="M23.2959 29.547L23.9032 29.0361C25.7083 27.5176 27.0027 25.4808 27.6111 23.2018C28.2194 20.9229 28.1122 18.5119 27.3041 16.2959C26.4959 14.0798 25.0259 12.1659 23.0933 10.8136C21.1606 9.46124 18.8589 8.7359 16.5001 8.7359C14.1413 8.7359 11.8396 9.46124 9.90694 10.8136C7.9743 12.1659 6.50426 14.0798 5.69612 16.2959C4.88797 18.5119 4.78081 20.9229 5.38916 23.2018C5.99751 25.4808 7.29195 27.5176 9.09698 29.0361L9.70433 29.547L8.98125 29.8743C6.00808 31.2197 3.44959 33.337 1.57179 36.0061L23.2959 29.547ZM23.2959 29.547L24.019 29.8743M23.2959 29.547L24.019 29.8743M24.019 29.8743C26.9923 31.2198 29.5508 33.3372 31.4287 36.0064L31.4358 36.0166L31.4435 36.0264C31.5893 36.2133 31.6957 36.4278 31.7562 36.6571C31.8166 36.8863 31.8298 37.1255 31.795 37.36C31.7602 37.5945 31.6782 37.8195 31.5538 38.0213C31.4294 38.2232 31.2653 38.3976 31.0714 38.5341C30.8776 38.6706 30.658 38.7663 30.4261 38.8153C30.1941 38.8644 29.9547 38.8658 29.7221 38.8195C29.4896 38.7732 29.2689 38.6801 29.0735 38.5459C28.878 38.4117 28.7119 38.2392 28.5851 38.0389L28.5787 38.0287L28.5718 38.0189C27.2111 36.0809 25.4037 34.4989 23.3026 33.4068C21.2014 32.3147 18.8682 31.7446 16.5001 31.7446C14.1321 31.7446 11.7988 32.3147 9.69765 33.4068C7.59647 34.4989 5.78912 36.0809 4.42839 38.0189L4.42728 38.0205C4.26732 38.2502 4.05404 38.4378 3.80573 38.567C3.55741 38.6962 3.28147 38.7633 3.00154 38.7625L2.99848 38.7625C2.63947 38.7637 2.28918 38.652 1.99711 38.4432L1.9947 38.4415M24.019 29.8743L1.9947 38.4415M1.9947 38.4415C1.61613 38.1743 1.359 37.7678 1.27972 37.3112C1.20046 36.8548 1.30541 36.3856 1.57154 36.0064L1.9947 38.4415ZM46.2902 38.439L46.2902 38.4391C46.4788 38.3083 46.6395 38.1414 46.7629 37.948C46.8864 37.7547 46.9702 37.5386 47.0095 37.3126C47.0487 37.0865 47.0427 36.8549 46.9916 36.6312C46.9406 36.4075 46.8456 36.1962 46.7121 36.0095L46.7099 36.0064C44.8321 33.3372 42.2735 31.2198 39.3002 29.8743L38.5751 29.5461L39.1854 29.0353C40.9953 27.5204 42.2943 25.4845 42.9056 23.2048C43.5169 20.9252 43.4108 18.5125 42.6017 16.2953C41.7926 14.0781 40.3198 12.1641 38.3839 10.814C36.448 9.46383 34.143 8.74313 31.7828 8.74998L31.7805 8.74999C30.7302 8.74824 29.6847 8.89327 28.6745 9.18087L28.6655 9.18343L28.6655 9.18334C28.4411 9.24272 28.2308 9.34615 28.0468 9.48759C27.8627 9.62904 27.7087 9.80568 27.5936 10.0072C27.4785 10.2088 27.4046 10.4312 27.3763 10.6616C27.348 10.892 27.3658 11.1257 27.4286 11.3491C27.4915 11.5726 27.5982 11.7812 27.7425 11.9631L27.364 12.2634L27.7425 11.9631C27.8868 12.1449 28.0658 12.2961 28.2691 12.4081C28.4725 12.52 28.696 12.5904 28.9268 12.6152C29.1576 12.6399 29.391 12.6184 29.6134 12.5521L29.6192 12.5504L29.6192 12.5504C30.3227 12.3497 31.0508 12.2486 31.7823 12.25M46.2902 38.439L43.4439 38.3062L43.8525 38.0182C43.8524 38.018 43.8523 38.0178 43.8521 38.0176C42.4886 36.0833 40.6809 34.5046 38.5806 33.414C36.4802 32.3232 34.1487 31.7526 31.7819 31.75H31.7814C31.3172 31.75 30.8721 31.5656 30.5439 31.2374C30.2157 30.9092 30.0314 30.4641 30.0314 30C30.0314 29.5359 30.2157 29.0907 30.5439 28.7625C30.8721 28.4344 31.3172 28.25 31.7814 28.25C33.9031 28.25 35.9379 27.4071 37.4382 25.9068C38.9385 24.4065 39.7814 22.3717 39.7814 20.25C39.7814 18.1282 38.9385 16.0934 37.4382 14.5931C35.9381 13.0931 33.9037 12.2502 31.7823 12.25M46.2902 38.439L46.2844 38.4432M46.2902 38.439L46.2844 38.4432M31.7823 12.25L31.7814 12.75V12.25C31.7817 12.25 31.782 12.25 31.7823 12.25ZM39.5064 29.4187L39.7125 28.9632C39.7813 28.9943 39.8498 29.0258 39.9182 29.0577C39.7839 29.181 39.6466 29.3014 39.5064 29.4187ZM39.5064 29.4187L39.8273 29.8021C39.8864 29.7527 39.9449 29.7027 40.003 29.6523C39.8387 29.5721 39.6732 29.4942 39.5064 29.4187ZM46.2844 38.4432C45.9924 38.6518 45.6424 38.7635 45.2836 38.7625L46.2844 38.4432ZM9.84835 15.8054C8.9693 17.121 8.50011 18.6677 8.50011 20.25C8.50011 22.3717 9.34296 24.4065 10.8433 25.9068C12.3435 27.4071 14.3784 28.25 16.5001 28.25C18.0824 28.25 19.6291 27.7808 20.9447 26.9017C22.2603 26.0227 23.2856 24.7733 23.8911 23.3114C24.4966 21.8496 24.6551 20.2411 24.3464 18.6893C24.0377 17.1374 23.2758 15.7119 22.157 14.5931C21.0381 13.4743 19.6127 12.7124 18.0608 12.4037C16.509 12.095 14.9004 12.2534 13.4386 12.8589C11.9768 13.4644 10.7274 14.4898 9.84835 15.8054Z" fill="#4CAF4F" stroke="#4CAF4F"/>
</g>
</svg>
