<svg width="47" height="30" viewBox="0 0 47 30" fill="none" xmlns="http://www.w3.org/2000/svg">
<g id="Logo" clip-path="url(#clip0_176_1519)">
<path id="Vector" d="M43.9965 3.81056C43.9965 3.84437 43.9965 3.88664 43.9877 3.912C43.9437 4.24168 43.9437 4.57136 43.9701 4.9095C43.9877 4.99404 44.0053 5.07857 44.0758 5.1462C44.1903 5.273 44.3664 5.24764 44.4369 5.09548C44.4722 5.0194 44.4722 4.94332 44.4545 4.86724C44.3664 4.546 44.3488 4.20787 44.34 3.87818C44.34 3.86127 44.34 3.83591 44.34 3.81056C44.4369 3.8021 44.525 3.79364 44.6042 3.79364C44.6659 3.78519 44.7188 3.77674 44.7628 3.75138C44.8949 3.68375 44.8949 3.54005 44.754 3.47242C44.7011 3.44705 44.6307 3.4386 44.569 3.4386C44.3488 3.44705 44.1287 3.44705 43.9084 3.44705C43.8292 3.44705 43.7499 3.45551 43.6706 3.46396C43.6266 3.47242 43.5737 3.47242 43.5385 3.49778C43.4768 3.52313 43.4417 3.5654 43.4417 3.62457C43.4504 3.68375 43.4768 3.71757 43.5385 3.74293C43.5737 3.76829 43.6178 3.77674 43.6618 3.77674C43.7675 3.78519 43.882 3.8021 43.9965 3.81056ZM46.4186 4.19941C46.4186 4.20787 46.4274 4.21632 46.4274 4.21632C46.4627 4.44456 46.4979 4.66436 46.5243 4.88414C46.5332 4.96022 46.542 5.02785 46.5948 5.08702C46.7093 5.23073 46.8855 5.21383 46.9647 5.06167C47 4.98558 47.0087 4.9095 46.9912 4.82497C46.9383 4.57136 46.9119 4.31776 46.859 4.07261C46.8238 3.92045 46.7798 3.77674 46.7357 3.64149C46.7093 3.55695 46.6477 3.49777 46.542 3.48932C46.4363 3.47242 46.357 3.52313 46.3129 3.59922C46.2601 3.66684 46.2161 3.73447 46.1808 3.81056C46.1192 3.94581 46.0663 4.08107 45.9959 4.20787C45.987 4.24168 45.9782 4.26704 45.9606 4.2924C45.9519 4.27549 45.9431 4.26704 45.9431 4.26704C45.8285 4.05571 45.7228 3.84437 45.6083 3.64149C45.5907 3.62457 45.5819 3.60767 45.5731 3.59076C45.5203 3.51468 45.4586 3.47242 45.3617 3.47242C45.2736 3.48087 45.2031 3.53159 45.1592 3.60767C45.1415 3.64149 45.1415 3.66684 45.1327 3.70066C45.0975 3.97117 45.0534 4.24168 45.0182 4.51219C45.0006 4.66436 44.9918 4.81651 44.9918 4.96868C44.983 5.00249 44.9918 5.04476 45.0094 5.07857C45.027 5.1462 45.0799 5.18847 45.1503 5.19692C45.2384 5.20538 45.3 5.18002 45.3265 5.11239C45.3529 5.06167 45.3617 5.0194 45.3705 4.97713C45.4058 4.82497 45.4322 4.68126 45.4586 4.53755C45.4762 4.45302 45.485 4.38539 45.5115 4.2924C45.5291 4.32622 45.5466 4.35158 45.5643 4.37693C45.6435 4.47838 45.7228 4.57982 45.8197 4.66436C45.9166 4.73198 45.9959 4.72353 46.0751 4.64744C46.0928 4.63054 46.1016 4.62209 46.1192 4.60518C46.1985 4.48683 46.2954 4.36848 46.3746 4.25013C46.3922 4.23322 46.401 4.21632 46.4186 4.19941Z" fill="#3A3B7B"/>
<path id="Vector_2" d="M26.1244 3.97662C26.0632 4.13727 26.0515 4.25302 26.0798 4.34922C26.111 4.48003 26.192 4.52286 26.302 4.48959C27.3366 4.24406 29.6051 4.94098 30.445 5.13522C30.6431 5.17601 30.8042 4.9306 30.6691 4.71056C30.4718 4.49748 28.2043 3.58519 27.3391 3.53544C26.9999 3.51705 26.3936 3.43358 26.1244 3.97662Z" fill="#3A3B7B"/>
<path id="Vector_3" d="M34.9904 1.02346C35.1006 1.08454 35.1622 1.1428 35.1927 1.2079C35.238 1.29329 35.2141 1.35238 35.1379 1.38252C34.4541 1.70285 33.5441 3.08194 33.1768 3.55758C33.0877 3.66699 32.8823 3.60341 32.8513 3.42348C32.8577 3.22003 33.6643 1.72341 34.1145 1.31578C34.2915 1.15663 34.5837 0.84436 34.9904 1.02346Z" fill="#3A3B7B"/>
<path id="Vector_4" d="M29.5445 0.344579C29.6769 0.248762 29.8146 0.215185 29.8849 0.277454C30.9167 1.12435 31.4638 2.46549 31.8026 3.69327C31.8154 3.72188 31.8162 3.76292 31.806 3.80574C31.8017 3.84234 31.7739 3.88101 31.7296 3.91092C31.6824 3.94395 31.6417 3.95401 31.6225 3.92555C31.1703 3.33522 28.5875 1.03835 29.5445 0.344579Z" fill="#3A3B7B"/>
<path id="Vector_5" d="M7.69524 15.0277C7.94253 14.8509 8.21137 14.7038 8.49586 14.5897C8.7935 14.508 9.11075 14.5215 9.39966 14.6283C9.68851 14.7351 9.93338 14.9292 10.0971 15.1814C10.2435 15.4329 10.3008 15.7233 10.2604 16.0088C10.2199 16.2942 10.084 16.5594 9.87289 16.7643C9.70926 16.9304 9.52348 17.0751 9.3205 17.1946C8.41582 17.7556 7.50308 18.2857 6.59039 18.8467C6.40363 18.9871 6.20551 19.113 5.99793 19.2232C5.68217 19.3744 5.32132 19.4148 4.97776 19.3376C4.6342 19.2605 4.32955 19.0705 4.11648 18.8006C3.95719 18.6095 3.82277 18.4005 3.71616 18.1782C2.8515 16.4339 1.95481 14.6972 1.12217 12.9222C0.737866 12.1538 0.425627 11.2701 0.121393 10.4172C-0.010233 10.1694 -0.0359366 9.88206 0.0497553 9.61632C0.135447 9.35057 0.325774 9.1274 0.580249 8.99427C0.834727 8.86113 1.13327 8.82857 1.4124 8.90344C1.69152 8.97832 1.92921 9.15476 2.0749 9.39519C2.52271 9.96636 2.91911 10.5731 3.25981 11.2087C4.12448 12.7455 4.94912 14.2823 5.78176 15.773C5.83024 15.8554 5.8837 15.9349 5.94188 16.0112C6.56859 15.7583 7.15803 15.4277 7.69524 15.0277Z" fill="#3A3B7B"/>
<path id="Vector_6" d="M16.6355 14.4916C14.658 16.7123 11.3434 16.1513 9.67813 13.2928C8.4932 11.2642 8.28505 7.91392 10.8631 5.80079C11.4136 5.35839 12.0718 5.05702 12.7765 4.92479C13.6405 4.80591 14.5216 4.9522 15.2937 5.34277C16.0658 5.73333 16.6896 6.34817 17.0759 7.09942C18.4849 9.55835 18.2848 12.6935 16.6355 14.4916ZM15.8349 9.31245C15.6248 8.70819 15.2033 8.19232 14.6419 7.85243C14.3243 7.63513 13.9383 7.52947 13.549 7.55327C13.1596 7.57706 12.7907 7.72885 12.5043 7.98306C11.3595 8.95898 11.1192 11.2719 11.9519 12.6474C12.058 12.8717 12.2139 13.071 12.4086 13.2314C12.6034 13.3918 12.8324 13.5095 13.0795 13.576C13.3265 13.6427 13.5858 13.6566 13.8391 13.617C14.0924 13.5774 14.3336 13.4851 14.5459 13.3466C15.1665 12.8848 15.6218 12.2489 15.8485 11.5273C16.0752 10.8057 16.0621 10.0342 15.8109 9.32016L15.8349 9.31245Z" fill="#3A3B7B"/>
<path id="Vector_7" d="M24.7055 10.2806C24.5031 10.3224 24.294 10.3249 24.0904 10.288C23.887 10.251 23.6932 10.1754 23.5207 10.0655C23.3697 9.98261 23.2397 9.86865 23.14 9.73176C23.0405 9.59486 22.9737 9.43853 22.9446 9.27389C22.9155 9.10931 22.9248 8.94058 22.9718 8.77983C23.0188 8.61908 23.1024 8.47032 23.2164 8.34424C23.4152 8.09088 23.6973 7.9095 24.0171 7.82942C24.8518 7.59689 25.7112 7.45512 26.579 7.40681C26.7697 7.38552 26.9629 7.40101 27.1472 7.45236C27.3316 7.50376 27.5033 7.58991 27.6525 7.70591C27.8016 7.82184 27.9252 7.96526 28.0158 8.12766C28.1064 8.29006 28.1623 8.46821 28.1802 8.65164C28.4304 9.55262 28.4578 10.4973 28.2603 11.4103C27.5398 14.3609 25.0578 15.3752 22.2717 14.4301C21.4896 14.1774 20.8039 13.7065 20.3022 13.0777C19.633 12.3204 19.1586 11.4229 18.9171 10.4574C18.7214 9.59763 18.7428 8.70549 18.9797 7.85532C19.2164 7.00516 19.6616 6.22167 20.2781 5.57029C20.8632 4.86231 21.6226 4.30514 22.4879 3.94893C23.0346 3.65969 23.6744 3.57745 24.2813 3.71841C24.4189 3.75497 24.5439 3.82622 24.6432 3.92476C24.7425 4.02331 24.8125 4.14555 24.846 4.27883C24.8795 4.41209 24.8752 4.55154 24.8336 4.6827C24.792 4.81385 24.7147 4.93194 24.6095 5.02471C24.4096 5.19842 24.1924 5.35284 23.961 5.48576C23.2492 5.92081 22.6298 6.4814 22.1356 7.13784C21.8116 7.56262 21.5885 8.05042 21.482 8.56681C21.3755 9.08321 21.3881 9.61576 21.5191 10.127C21.7007 10.8241 22.1036 11.4497 22.672 11.9174C24.4333 13.4542 26.7231 11.9711 26.3228 9.87339C25.7384 10.0117 25.226 10.1577 24.7055 10.2806Z" fill="#3A3B7B"/>
<path id="Vector_8" d="M35.4659 14.6145C32.8639 16.1514 29.9016 14.6145 29.2531 11.3872C28.7807 9.08196 29.6774 5.8546 32.8159 4.62514C33.4836 4.36918 34.2079 4.27931 34.9215 4.36387C35.7788 4.51451 36.5654 4.91961 37.17 5.52206C37.7747 6.12451 38.1672 6.89391 38.2921 7.72186C38.8205 10.4651 37.6196 13.3927 35.4659 14.6145ZM36.3706 9.44307C36.3698 8.80474 36.1346 8.18704 35.7061 7.69879C35.4771 7.39679 35.146 7.18041 34.7693 7.08649C34.3926 6.99264 33.9937 7.02704 33.6405 7.18397C32.2314 7.76793 31.2386 9.88875 31.5989 11.4487C31.6265 11.6935 31.7093 11.9296 31.8418 12.1404C31.9743 12.3512 32.1531 12.5318 32.3659 12.6694C32.5786 12.8069 32.8201 12.8983 33.0735 12.937C33.3268 12.9756 33.586 12.9607 33.8326 12.8933C34.5775 12.6436 35.2224 12.1768 35.6773 11.5583C36.1323 10.9397 36.3747 10.2002 36.3706 9.44307Z" fill="#3A3B7B"/>
<path id="Vector_9" d="M40.9234 15.26C40.8841 15.5412 40.7301 15.796 40.4951 15.9682C40.2601 16.1403 39.9635 16.2159 39.6705 16.1782C39.3775 16.1405 39.112 15.9926 38.9326 15.7671C38.7532 15.5416 38.6745 15.2569 38.7137 14.9757C38.753 14.6944 38.9071 14.4397 39.142 14.2675C39.377 14.0952 39.6737 14.0197 39.9667 14.0574C40.2597 14.0951 40.5251 14.243 40.7046 14.4685C40.884 14.694 40.9628 14.9788 40.9234 15.26ZM40.2269 4.89405C40.3792 4.67085 40.6025 4.50088 40.8637 4.40948C41.1248 4.31809 41.4098 4.31017 41.676 4.3869C41.9467 4.4519 42.1858 4.60415 42.3534 4.81818C42.521 5.03221 42.6069 5.29501 42.5968 5.56258C42.5614 5.99176 42.4946 6.41801 42.3966 6.83813C42.1324 8.25972 41.8762 9.68125 41.596 11.0875C41.4679 11.6484 41.2998 12.1863 41.1156 12.7549C41.0515 12.9327 40.9445 13.0933 40.8034 13.2237C40.7156 13.3217 40.6035 13.3969 40.4775 13.4424C40.3514 13.4878 40.2154 13.502 40.0821 13.4836C39.9488 13.4652 39.8225 13.4149 39.7148 13.3372C39.6072 13.2595 39.5217 13.157 39.4664 13.0393C39.3711 12.8279 39.3194 12.6009 39.3142 12.3707C39.3142 11.4179 39.3142 10.4574 39.3783 9.49684C39.4871 8.12606 39.7011 6.76483 40.0187 5.42426C40.0561 5.24466 40.1266 5.07291 40.2269 4.91711V4.89405Z" fill="#3A3B7B"/>
<path id="Vector_10" fill-rule="evenodd" clip-rule="evenodd" d="M4.31263 21.4349C4.2181 21.6374 4.19218 21.8632 4.23837 22.0805C4.2691 22.3669 4.3366 22.6487 4.43933 22.9193C4.56759 23.2507 4.71111 23.5784 4.88807 23.9823C4.92876 24.0752 4.97129 24.1723 5.01579 24.2744C5.25443 24.8215 5.55386 25.5208 5.95326 26.5329C6.06631 26.8204 6.1667 27.1102 6.26779 27.4021C6.30862 27.52 6.34961 27.6383 6.39156 27.7569C6.54193 28.1784 6.80067 28.5571 7.14364 28.8573C7.28927 29.0222 7.48244 29.1425 7.69904 29.2026C7.91988 29.2639 8.15474 29.26 8.37323 29.1914C8.59171 29.1228 8.7836 28.9927 8.924 28.818C9.06164 28.6467 9.14349 28.4403 9.1594 28.2246C9.2487 27.8045 9.21822 27.3689 9.07104 26.9639C8.83745 26.2914 8.57136 25.618 8.26452 24.9593L8.26311 24.9564C7.75833 23.9258 7.24523 22.9024 6.70784 21.8786L6.70382 21.8714C6.5465 21.6046 6.34206 21.3662 6.09967 21.1667C5.94232 20.9887 5.72526 20.8686 5.48556 20.8272C5.24076 20.785 4.98827 20.8276 4.77319 20.9475C4.56972 21.059 4.40843 21.2296 4.31263 21.4349Z" fill="#3A3B7B"/>
<path id="Vector_11" fill-rule="evenodd" clip-rule="evenodd" d="M12.0224 18.8972C11.2309 18.7004 10.4043 18.6718 9.60018 18.8132C8.97737 18.8721 8.36482 19.0099 7.93947 19.2831C7.72314 19.4221 7.54823 19.6006 7.45094 19.8274C7.35311 20.0555 7.34063 20.3164 7.42079 20.6071C7.56717 21.1395 7.75725 21.6571 7.94666 22.1731L7.97734 22.2567L7.97808 22.2585C8.54839 23.7576 9.12414 25.2515 9.70513 26.7404C9.77288 26.975 9.86869 27.2013 9.99062 27.4148L9.9929 27.4188C10.154 27.684 10.3606 27.9212 10.604 28.1204C10.7257 28.23 10.8762 28.3058 11.0395 28.3396C11.2043 28.3738 11.3757 28.3639 11.535 28.3109C11.6944 28.258 11.8356 28.1641 11.9431 28.0394C12.049 27.9167 12.1182 27.7689 12.1437 27.6117C12.2487 27.1844 12.2151 26.7366 12.0472 26.3282C11.9948 26.1908 11.9537 26.0503 11.9104 25.9025C11.896 25.8532 11.8814 25.8031 11.8659 25.752C13.1958 25.253 14.6109 24.5822 15.1085 23.0214C15.3033 22.4821 15.3195 21.8981 15.1549 21.3494C14.9901 20.8002 14.6521 20.3134 14.1873 19.9561C13.5548 19.4558 12.8159 19.0944 12.0224 18.8972ZM9.82847 20.8115C9.85466 20.8043 9.88104 20.7975 9.9075 20.7913C10.7733 20.6606 11.6591 20.8347 12.4019 21.2813C12.7292 21.4998 12.8633 21.7425 12.8863 21.9761C12.9101 22.2166 12.8189 22.4772 12.6359 22.7277C12.2901 23.201 11.6589 23.5797 11.0888 23.6503C10.6732 22.7317 10.2511 21.7759 9.82847 20.8115Z" fill="#3A3B7B"/>
<path id="Vector_12" d="M17.2991 17.2157C18.2417 16.7979 19.4092 16.7257 20.3228 17.0194C20.5529 17.0838 20.7525 17.2229 20.8876 17.4131C21.0217 17.602 21.0836 17.8297 21.0629 18.0574C21.0616 18.2052 21.0238 18.3505 20.9527 18.4817C20.8803 18.6152 20.7755 18.7301 20.6471 18.8165C20.5187 18.9029 20.3706 18.9585 20.2151 18.9783C20.0596 18.9982 19.9015 18.9819 19.754 18.9307L19.7428 18.9268L19.7322 18.9215C19.6568 18.8836 19.5766 18.855 19.4937 18.8364L19.4884 18.8353C18.8457 18.6715 18.2395 18.9429 18.0181 19.2765C17.9125 19.4355 17.8994 19.5961 17.9873 19.7422C18.0815 19.8986 18.3126 20.0741 18.7801 20.1992C18.9087 20.233 19.0405 20.2657 19.1741 20.299C19.5438 20.3908 19.928 20.4863 20.2995 20.6185L20.3009 20.6191C22.0148 21.2449 22.653 22.5412 22.4345 23.7604C22.2184 24.966 21.1693 26.0633 19.5916 26.3221C19.0176 26.4442 18.4201 26.4205 17.8585 26.2531C17.2954 26.0852 16.7879 25.779 16.3863 25.3645L16.3758 25.3537C16.2491 25.1976 16.1638 25.0142 16.126 24.8195C16.0912 24.6439 16.1095 24.4624 16.1787 24.2963C16.2474 24.1313 16.3637 23.9885 16.5138 23.8844C16.6723 23.7664 16.8634 23.6956 17.0634 23.6809C17.2628 23.6662 17.4623 23.7078 17.6373 23.8004C17.8121 23.8815 17.9748 23.9849 18.1207 24.1079L18.1235 24.1101C18.3817 24.3368 18.6941 24.3959 18.9937 24.3412C19.2977 24.2857 19.5835 24.113 19.7673 23.884C19.95 23.6564 20.0233 23.3861 19.9363 23.1236C19.8487 22.8593 19.5854 22.5631 19.007 22.3154C18.8558 22.2538 18.699 22.2041 18.5359 22.1557C18.492 22.1427 18.4472 22.1297 18.402 22.1165C18.2814 22.0814 18.1573 22.0452 18.0357 22.0053C17.9519 21.9779 17.8687 21.952 17.7864 21.9262C17.5614 21.8559 17.3421 21.7873 17.131 21.6954C16.6715 21.5452 16.2746 21.2569 15.9992 20.8732C15.7227 20.4878 15.5836 20.0271 15.6025 19.5596C15.604 18.4205 16.3515 17.6358 17.2991 17.2157Z" fill="#3A3B7B"/>
<path id="Vector_13" d="M29.2486 17.0943C29.0659 17.0086 28.8638 16.968 28.6606 16.976C28.4574 16.984 28.2594 17.0404 28.0846 17.1403C27.9109 17.2394 27.7655 17.3782 27.6613 17.5444C27.5658 17.6843 27.4996 17.8408 27.4667 18.0051C27.4337 18.1692 27.4345 18.338 27.4689 18.5018C27.503 18.7123 27.5407 18.917 27.578 19.1189C27.6397 19.453 27.6997 19.7795 27.7393 20.1125L27.7408 20.1209C27.831 20.6431 27.8782 21.1713 27.8824 21.7005L27.8828 21.708C27.9136 22.2796 27.7107 22.84 27.3176 23.2704L27.3114 23.2781C27.1835 23.4354 27.0124 23.5555 26.8174 23.6249C26.6224 23.6943 26.4112 23.7102 26.2073 23.6709C26.0033 23.6317 25.8149 23.5387 25.6629 23.4025C25.5109 23.2663 25.4012 23.0916 25.3465 22.8991C25.2297 22.4933 25.162 22.0759 25.1449 21.6552L25.3444 18.6061C25.3474 18.5663 25.3507 18.5254 25.3541 18.4842C25.3617 18.3916 25.3695 18.2972 25.3727 18.2092C25.3774 18.0798 25.3734 17.9467 25.342 17.8206C25.3098 17.6919 25.2487 17.5693 25.1402 17.465C25.0327 17.3617 24.8877 17.2855 24.7052 17.2337C24.3752 17.142 24.0962 17.1449 23.8636 17.2396C23.631 17.3343 23.4716 17.5102 23.3588 17.7133C23.2469 17.9147 23.175 18.1532 23.1206 18.392C23.0802 18.5692 23.0478 18.7553 23.017 18.9324C23.0063 18.9934 22.9959 19.0533 22.9853 19.1115L22.9851 19.1133C22.8202 20.0845 22.7711 21.0706 22.8388 22.0525C22.8514 22.5832 22.9667 23.107 23.1789 23.5971C23.4182 24.2296 23.8518 24.7776 24.4223 25.1687C24.994 25.5607 25.6762 25.7767 26.3787 25.7881C27.0811 25.7995 27.7706 25.6058 28.3558 25.2327C28.9401 24.8601 29.3929 24.3261 29.6544 23.7013C30.0201 22.9055 30.1919 22.04 30.1564 21.1707C30.1349 20.5362 30.0989 19.8967 30.0631 19.2605C30.0456 18.9484 30.028 18.637 30.0123 18.3275C30.0044 18.0171 29.8978 17.7165 29.7067 17.466C29.5884 17.3076 29.4311 17.1799 29.2486 17.0943Z" fill="#3A3B7B"/>
<path id="Vector_14" d="M35.7175 21.8754C35.699 21.898 35.6794 21.9214 35.659 21.9458C35.5104 21.1227 35.3726 20.2999 35.2346 19.4758C35.1851 19.1801 35.1354 18.8832 35.0853 18.5872L35.0797 18.5541L35.0614 18.5256C35.027 18.4719 35.0236 18.4192 35.0236 18.3069V18.2939L35.0215 18.2811C34.9842 18.0491 34.8748 17.8333 34.7079 17.6618C34.5413 17.4908 34.3251 17.3717 34.0872 17.3201C33.8497 17.2638 33.6001 17.2762 33.3699 17.3557C33.1403 17.435 32.9401 17.5775 32.7944 17.7653C32.6733 17.9095 32.574 18.0694 32.4996 18.2402C32.3307 18.6082 32.1604 18.9772 31.9896 19.3472L31.9866 19.3535C31.5602 20.2771 31.1309 21.2069 30.7141 22.144L30.7128 22.147C30.4569 22.7547 30.2457 23.3949 30.0352 24.0332C29.9932 24.1606 29.9511 24.2879 29.9088 24.4149C29.8328 24.6163 29.7995 24.8303 29.8109 25.0441C29.7971 25.2356 29.8448 25.4266 29.9478 25.5913C30.0528 25.7594 30.2102 25.8916 30.3976 25.9694C30.5962 26.053 30.8182 26.0707 31.0286 26.0199C31.2385 25.969 31.4248 25.8528 31.5584 25.6893C31.7289 25.488 31.8756 25.2684 31.9953 25.0357C32.3484 24.3425 32.6859 23.6408 33.0218 22.9422C33.1518 22.6719 33.2781 22.4299 33.4217 22.1664C33.4316 22.1988 33.4417 22.2305 33.4521 22.2623C33.6027 22.8987 33.8569 23.5082 34.2053 24.0686C34.2712 24.1873 34.3631 24.291 34.4745 24.3727C34.5873 24.4553 34.7175 24.5133 34.856 24.5428C34.9946 24.5722 35.1381 24.5724 35.2767 24.5432C35.4151 24.514 35.5457 24.456 35.6585 24.3737L35.8819 24.2132L37.6158 22.8115L37.5132 23.4387C37.3725 24.3007 37.2328 25.1555 37.0844 26.0106C36.9874 26.3895 36.9875 26.7854 37.0849 27.1642C37.127 27.3775 37.2344 27.5737 37.3934 27.7281C37.5538 27.8837 37.7591 27.9894 37.9828 28.0316C38.2065 28.0737 38.4383 28.0504 38.648 27.9645C38.8547 27.8799 39.0305 27.7385 39.1533 27.5582C39.4392 27.2178 39.6171 26.8057 39.666 26.3709C39.7396 25.7569 39.8227 25.1345 39.9059 24.5123C40.0017 23.7952 40.0976 23.0782 40.1785 22.375L40.1787 22.3728C40.2566 21.6031 40.2943 20.8302 40.2917 20.0568C40.3087 19.8124 40.2453 19.5689 40.1102 19.3609C39.9747 19.1521 39.7739 18.9897 39.5366 18.8969C39.2898 18.7892 39.0135 18.7604 38.7484 18.8148C38.485 18.8689 38.2466 19.0021 38.0677 19.1952C37.7479 19.479 37.4479 19.7828 37.1696 20.1045L37.1677 20.1067C36.8639 20.47 36.5621 20.8405 36.2624 21.2086C36.0801 21.4324 35.8983 21.6556 35.7175 21.8754Z" fill="#3A3B7B"/>
</g>
<defs>
<clipPath id="clip0_176_1519">
<rect width="47" height="29" fill="white" transform="translate(0 0.24585)"/>
</clipPath>
</defs>
</svg>
